<?xml version="1.0" encoding="UTF-8" standalone="no"?>
<!--Hieronder width en height van search icon aangepast-->
<svg width="23px" height="23px" viewBox="0 0 18 17" version="1.1" xmlns="http://www.w3.org/2000/svg" xmlns:xlink="http://www.w3.org/1999/xlink">
    <!-- Generator: Sketch 3.8.3 (29802) - http://www.bohemiancoding.com/sketch -->
    <title>search</title>
    <desc>Created with Sketch.</desc>
    <defs></defs>
    <g id="Symbols" stroke="none" stroke-width="1" fill="none" fill-rule="evenodd">
      <!--Hieronder via stroke kleur van search icon aangepast-->
        <g id="search" transform="translate(1.000000, 1.000000)" stroke="#ffffff">
            <g id="Group">
                <path fill="#000000" d="M15.576001,14.9118343 L10.7232759,10.0591091 C11.6379109,8.99250397 12.1951347,7.60976343 12.1951347,6.09756685 C12.1951347,2.7354623 9.45967244,8.8817842e-16 6.09756789,8.8817842e-16 C4.4690485,8.8817842e-16 2.93715209,0.634146953 1.78424291,1.78517996 C0.633209905,2.93715105 -0.00093704792,4.46904746 1.03928751e-06,6.09756685 C1.03928751e-06,9.4596714 2.73546334,12.1951337 6.09756789,12.1951337 C7.60976447,12.1951337 8.9934431,11.6379099 10.0600483,10.7232749 L14.9127734,15.576 L15.576001,14.9118343 L15.576001,14.9118343 Z M6.09756789,11.2570465 C3.25328748,11.2570465 0.938088247,8.94278535 0.938088247,6.09756685 C0.93715016,4.71857866 1.47373604,3.42308022 2.44840865,2.4493457 C3.42214317,1.47467309 4.7185797,0.938087208 6.09756789,0.938087208 C8.94184831,0.938087208 11.2570475,3.25234835 11.2570475,6.09756685 C11.2570475,8.94184727 8.94184831,11.2570465 6.09756789,11.2570465 L6.09756789,11.2570465 Z" id="Shape"></path>
            </g>
        </g>
    </g>
</svg>
